<?xml version="1.0" standalone="no"?><!DOCTYPE svg PUBLIC "-//W3C//DTD SVG 1.1//EN" "http://www.w3.org/Graphics/SVG/1.1/DTD/svg11.dtd"><svg t="1674984679274" class="icon" viewBox="0 0 1024 1024" version="1.1" xmlns="http://www.w3.org/2000/svg" p-id="2638" xmlns:xlink="http://www.w3.org/1999/xlink" width="200" height="200"><path d="M74.3424 316.5184l413.2864-216.2176a52.1728 52.1728 0 0 1 48.1792-0.1024l418.0992 216.4736c36.9664 19.1488 37.7344 71.7312 1.3312 91.9552l-415.488 230.5024a52.096 52.096 0 0 1-50.6368 0L73.216 408.3712c-36.3008-20.1728-35.6864-72.6016 1.1264-91.8528z" fill="#80B7F9" p-id="2639"></path><path d="M795.392 794.624l-245.4016 130.2016a63.40608 63.40608 0 0 1-59.4944 0L245.1456 794.624a63.49312 63.49312 0 0 1-33.7408-56.064V454.4512c0-26.6752 16.64-50.4832 41.728-59.5968l245.4016-89.4976c14.0288-5.12 29.44-5.12 43.4688 0l245.4016 89.4976c25.0368 9.1136 41.728 32.9728 41.728 59.5968v284.1088c0 23.4496-13.0048 45.056-33.7408 56.064z" fill="#80B7F9" p-id="2640"></path><path d="M489.1136 639.1296c15.7184 8.7552 34.8672 8.7552 50.6368 0l289.3824-160.5632v-24.1152c0-26.6752-16.64-50.4832-41.728-59.5968l-245.4016-89.4976c-14.0288-5.12-29.44-5.12-43.4688 0L253.1328 394.8032a63.47776 63.47776 0 0 0-41.728 59.5968v30.6176l277.7088 154.112z" fill="#3E8BF8" p-id="2641"></path><path d="M917.3504 676.7104a35.2768 35.2768 0 0 0 35.2768-35.2768V378.0096a35.2768 35.2768 0 0 0-70.5536 0v263.424c0 19.456 15.7696 35.2768 35.2768 35.2768z" fill="#80B7F9" p-id="2642"></path><path d="M952.6272 410.0096v-32a35.2768 35.2768 0 0 0-70.5536 0v71.168l70.5536-39.168z" fill="#3E8BF8" p-id="2643"></path></svg>